<svg xmlns="http://www.w3.org/2000/svg" xmlns:xlink="http://www.w3.org/1999/xlink" width="54" height="54.448" viewBox="0 0 54 54.448">
  <defs>
    <radialGradient id="radial-gradient" cx="0.5" cy="0.5" r="0.5" gradientTransform="matrix(0.707, 0.707, -0.707, 0.707, 0.5, -0.207)" gradientUnits="objectBoundingBox">
      <stop offset="0" stop-color="#fbfdf9"/>
      <stop offset="1" stop-color="#fbfdf9"/>
    </radialGradient>
  </defs>
  <g id="counter" transform="translate(-195 -249)">
    <g id="Group_2397" data-name="Group 2397" transform="translate(-940.455 2974.579)">
      <rect id="Rectangle_2098" data-name="Rectangle 2098" width="2.322" height="5.703" transform="translate(1161.83 -2723.612)" fill="#424d62"/>
      <rect id="Rectangle_2099" data-name="Rectangle 2099" width="2.322" height="5.703" transform="translate(1141.621 -2714.298) rotate(-47)" fill="#424d62"/>
      <path id="Path_3080" data-name="Path 3080" d="M380.619,2041.286h-2.766a1.916,1.916,0,0,0-1.916,1.916v1.411h6.6V2043.2A1.916,1.916,0,0,0,380.619,2041.286Z" transform="translate(783.754 -4765.865)" fill="#424d62"/>
      <path id="Path_3095" data-name="Path 3095" d="M380.619,2041.286h-2.766a1.916,1.916,0,0,0-1.916,1.916v1.411h6.6V2043.2A1.916,1.916,0,0,0,380.619,2041.286Z" transform="translate(-609.835 -3830.604) rotate(-47)" fill="#424d62"/>
      <circle id="Ellipse_452" data-name="Ellipse 452" cx="22.974" cy="22.974" r="22.974" transform="translate(1140.016 -2718.08)" fill="url(#radial-gradient)"/>
      <g id="Group_2378" data-name="Group 2378" transform="translate(1144.226 -2713.87)">
        <path id="Path_3083" data-name="Path 3083" d="M348.532,2166.9a17.531,17.531,0,0,0,2.422-4.947l.006-.019q.041-.135.081-.271l.029-.1.052-.187c.017-.063.033-.126.05-.189l.026-.1q.034-.137.067-.275l0-.02a17.542,17.542,0,0,0,.372-5.726c0-.03-.005-.06-.008-.09-.005-.048-.011-.1-.017-.145a17.49,17.49,0,0,0-2.126-6.627l-.051-.091q-.059-.1-.12-.207t-.122-.207l-.054-.088a17.489,17.489,0,0,0-4.733-5.1l-.118-.085-.075-.052a17.525,17.525,0,0,0-10.1-3.183v17.606l-15.247,8.8a17.515,17.515,0,0,0,6.4,6.416h0l.071.04c.1.057.2.113.3.167.119.065.238.129.357.191l.15.078q.258.131.518.253l.016.008.082.039.025.011a17.5,17.5,0,0,0,4.739,1.41h.01q.633.094,1.269.141l.031,0q.432.031.863.042l.085,0h.582l.139,0,.159,0a17.471,17.471,0,0,0,2.92-.334l.035-.007q.179-.036.359-.076l.113-.026.275-.066.193-.049.192-.051.273-.076.111-.032q.176-.052.35-.108l.034-.011a17.524,17.524,0,0,0,2.975-1.271l.091-.049.209-.117.209-.119.089-.052.01-.006.125-.076q.185-.112.368-.228l.163-.1q.222-.145.44-.3l.145-.1q.166-.118.329-.24l.162-.122q.208-.159.411-.325c.052-.042.1-.086.156-.13.1-.083.2-.167.3-.253.053-.046.105-.091.157-.138q.193-.172.382-.352c.054-.051.107-.1.161-.155q.136-.132.269-.267c.05-.051.1-.1.15-.153.119-.124.236-.251.352-.379.054-.059.106-.12.16-.18q.124-.141.245-.285c.052-.062.105-.124.157-.187q.155-.189.3-.384c.052-.067.1-.135.154-.2l.072-.095.087-.117.053-.074.079-.111Z" transform="translate(-315.355 -2138.023)" fill="#fd6d5f"/>
        <g id="Group_2377" data-name="Group 2377" transform="translate(5.181 16.884)">
          <path id="Path_3093" data-name="Path 3093" d="M328.636,2239.457l12.592-8.942a1.8,1.8,0,0,1,2.6.528h0l-15.288,8.826A.3.3,0,0,1,328.636,2239.457Z" transform="translate(-328.497 -2230.172)" fill="#51556a"/>
          <path id="Path_3094" data-name="Path 3094" d="M344.036,2235.212a1.8,1.8,0,0,1-.843,2.516l-14.041,6.433a.3.3,0,0,1-.4-.123Z" transform="translate(-328.705 -2234.341)" fill="#51556a"/>
        </g>
      </g>
      <circle id="Ellipse_456" data-name="Ellipse 456" cx="22.974" cy="22.974" r="22.974" transform="translate(1140.016 -2718.08)" fill="none" stroke="#424d62" stroke-width="2"/>
    </g>
    <rect id="Rectangle_2123" data-name="Rectangle 2123" width="54" height="54" transform="translate(195 249)" fill="none"/>
  </g>
</svg>
