<?xml version="1.0" encoding="UTF-8" standalone="no"?> <svg height="512pt" viewBox="0 0 512 512" width="512pt" xmlns="http://www.w3.org/2000/svg"><path d="m342.625 123.558594c0-13.253906-10.742188-24-24-24h-126c-13.253906 0-24 10.746094-24 24s10.746094 24 24 24h126c13.257812 0 24-10.746094 24-24zm0 0" fill="#ffb954"/><path d="m267.238281 10h-.539062c-7.265625 0-14.230469 2.886719-19.367188 8.023438-10.058593 10.058593-24.675781 12.773437-37.203125 8.160156v73.375h84.496094v-62.171875c0-15.125-12.261719-27.386719-27.386719-27.386719zm0 0" fill="#ffc66c"/><path d="m390.617188 333.449219-98.128907-20.382813c-12.242187-2.542968-21.019531-13.332031-21.019531-25.839844v-23.5625h-22.019531v23.546876c0 12.511718-8.785157 23.304687-21.039063 25.84375l-98.613281 20.414062c-25.699219 5.320312-44.132813 27.960938-44.132813 54.207031v114.324219h349.046876v-114.351562c0-26.234376-18.410157-48.863282-44.09375-54.199219zm0 0" fill="#ffc66c"/><path d="m362.917969 327.632812v63.378907c0 14.921875-12.09375 27.015625-27.011719 27.015625h-204.894531c-14.917969 0-27.011719-12.09375-27.011719-27.015625v-63.378907l-18.332031 3.796876v170.570312h295.585937v-170.570312zm0 0" fill="#4dbaf6"/><path d="m255.378906 287.949219c26.710938-12.382813 45.246094-39.414063 45.246094-70.792969v-69.597656h-90.496094v69.597656c0 31.378906 18.539063 58.410156 45.25 70.792969zm0 0" fill="#ffdfdf"/><path d="m318.824219 313.066406h-83c-9.800781 0-17.746094 7.945313-17.746094 17.746094v171.1875h83v-171.1875c0-9.800781 7.945313-17.746094 17.746094-17.746094zm0 0" fill="#fff"/><path d="m484.253906 313.066406h-165.429687c-9.800781 0-17.746094 7.945313-17.746094 17.746094v171.1875h200.921875v-171.1875c0-9.800781-7.945312-17.746094-17.746094-17.746094zm0 0" fill="#c9f3ff"/><path d="m353.828125 407.421875c0-20.160156 11.742187-34.960937 22.210937-44.160156-8.410156-7.394531-16-11.167969-16-11.167969s-38.210937 18.96875-38.210937 55.328125 38.210937 55.695313 38.210937 55.695313 7.589844-3.847657 16-11.320313c-10.46875-9.300781-22.210937-24.21875-22.210937-44.375zm0 0" fill="#fff"/><path d="m398.25 407.421875c0-20.160156-11.742188-34.960937-22.210938-44.160156-10.46875 9.199219-22.210937 24-22.210937 44.160156s11.742187 35.074219 22.210937 44.375c10.46875-9.300781 22.210938-24.21875 22.210938-44.375zm0 0" fill="#a0e557"/><path d="m484.253906 303.066406h-190.554687c-7.132813-1.875-12.230469-8.394531-12.230469-15.839844v-4.691406c17.890625-16.121094 29.15625-39.457031 29.15625-65.375v-59.601562h8c18.75 0 34-15.253906 34-34 0-18.75-15.25-34-34-34h-14v-52.171875c0-20.613281-16.769531-37.386719-37.386719-37.386719h-.539062c-9.988281 0-19.375 3.890625-26.4375 10.949219-9.875 9.875-25.941407 9.875-35.8125 0-7.0625-7.058594-16.449219-10.949219-26.433594-10.949219-20.617187 0-37.390625 16.773438-37.390625 37.386719v52.171875h-14c-18.746094 0-34 15.253906-34 34 0 18.75 15.253906 34 34 34h8v59.601562c0 25.917969 11.269531 49.253906 29.160156 65.375v4.679688c0 7.730468-5.496094 14.480468-13.066406 16.050781l-48.691406 10.082031c-.03125.003906-.058594.011719-.089844.015625l-39.898438 8.261719c-.039062.007812-.078124.015625-.117187.023438l-9.816406 2.035156c-30.191407 6.25-52.105469 33.164062-52.105469 63.992187v114.324219c0 5.523438 4.476562 10 10 10h492c5.523438 0 10-4.476562 10-10v-171.1875c0-15.300781-12.445312-27.746094-27.746094-27.746094zm-219.117187 0h-23.410157c7.292969-1.621094 14.246094-4.144531 20.738282-7.453125.621094 2.59375 1.519531 5.089844 2.671875 7.453125zm-104.511719-265.679687c0-9.585938 7.800781-17.386719 17.390625-17.386719 4.640625 0 9.007813 1.808594 12.292969 5.09375 17.671875 17.671875 46.425781 17.667969 64.09375 0 3.285156-3.285156 7.652344-5.09375 12.296875-5.09375h.539062c9.585938 0 17.390625 7.800781 17.390625 17.386719v52.171875h-124v-52.171875zm-48 86.171875c0-7.71875 6.28125-14 14-14h192c7.722656 0 14 6.28125 14 14s-6.277344 14-14 14h-192c-7.71875 0-14-6.28125-14-14zm42 93.601562v-59.601562h136v59.601562c0 37.492188-30.503906 68-68 68s-68-30.507812-68-68zm.148438 105.6875c13.992187-2.898437 24.785156-13.769531 28.011718-27.238281 11.96875 6.105469 25.511719 9.550781 39.839844 9.550781.921875 0 1.839844-.019531 2.757812-.046875-10.140624 4.132813-17.304687 14.09375-17.304687 25.699219v77.214844h-77.066406c-9.378907 0-17.011719-7.632813-17.011719-17.011719v-59.726563zm-134.773438 64.828125c0-20.652343 14.171875-38.769531 34-43.902343v77.726562c0 5.523438 4.476562 10 10 10s10-4.476562 10-10v-81.929688l20-4.140624v55.585937c0 20.40625 16.605469 37.011719 37.011719 37.011719h77.066406v63.972656h-188.078125zm472 104.324219h-263.921875v-161.1875c0-4.273438 3.476563-7.746094 7.746094-7.746094h56.636719.039062.046875 191.707031c4.273438 0 7.746094 3.472656 7.746094 7.746094zm0 0"/><path d="m64 450.5c-2.628906 0-5.210938 1.070312-7.070312 2.929688-1.859376 1.859374-2.929688 4.441406-2.929688 7.070312s1.070312 5.210938 2.929688 7.070312c1.859374 1.859376 4.441406 2.929688 7.070312 2.929688s5.210938-1.070312 7.070312-2.929688c1.859376-1.859374 2.929688-4.441406 2.929688-7.070312s-1.070312-5.210938-2.929688-7.070312c-1.859374-1.859376-4.441406-2.929688-7.070312-2.929688zm0 0"/><path d="m253.128906 220c2.632813 0 5.210938-1.070312 7.070313-2.929688 1.859375-1.859374 2.929687-4.441406 2.929687-7.070312s-1.070312-5.210938-2.929687-7.070312c-1.871094-1.859376-4.4375-2.929688-7.070313-2.929688-2.640625 0-5.207031 1.070312-7.078125 2.929688-1.859375 1.859374-2.921875 4.441406-2.921875 7.070312s1.0625 5.210938 2.921875 7.070312c1.859375 1.859376 4.4375 2.929688 7.078125 2.929688zm0 0"/><path d="m192.128906 220c2.632813 0 5.210938-1.070312 7.070313-2.929688 1.859375-1.859374 2.929687-4.441406 2.929687-7.070312s-1.070312-5.210938-2.929687-7.070312c-1.859375-1.859376-4.4375-2.929688-7.070313-2.929688-2.640625 0-5.207031 1.070312-7.070312 2.929688-1.867188 1.859374-2.929688 4.441406-2.929688 7.070312s1.0625 5.210938 2.929688 7.070312c1.851562 1.859376 4.429687 2.929688 7.070312 2.929688zm0 0"/><path d="m364.484375 343.136719c-2.800781-1.390625-6.089844-1.390625-8.890625 0-1.789062.886719-43.765625 22.207031-43.765625 64.285156 0 42.023437 41.910156 63.714844 43.695313 64.617187 1.417968.71875 2.964843 1.078126 4.515624 1.078126 1.546876 0 3.09375-.359376 4.515626-1.078126 1.78125-.902343 43.695312-22.59375 43.695312-64.617187 0-42.078125-41.976562-63.398437-43.765625-64.285156zm5.554687 100.566406v-36.097656c0-5.519531-4.476562-10-10-10-5.523437 0-10 4.480469-10 10v36.097656c-8.753906-7.96875-18.210937-20.277344-18.210937-36.28125 0-22.847656 19.3125-37.980469 28.234375-43.75 8.945312 5.734375 28.1875 20.75 28.1875 43.75 0 16.003906-9.460938 28.3125-18.210938 36.28125zm0 0"/><path d="m425.296875 244.585938c2.558594 0 5.117187-.976563 7.070313-2.929688 3.90625-3.902344 3.90625-10.234375 0-14.140625-18.8125-18.816406-49.421876-18.816406-68.234376 0-3.90625 3.902344-3.90625 10.234375 0 14.140625s10.238282 3.90625 14.140626 0c11.015624-11.015625 28.9375-11.015625 39.953124 0 1.953126 1.953125 4.511719 2.929688 7.070313 2.929688zm0 0"/><path d="m337.082031 214.609375c3.90625 3.90625 10.238281 3.90625 14.144531 0 25.929688-25.929687 68.117188-25.929687 94.046876 0 1.953124 1.953125 4.511718 2.929687 7.070312 2.929687s5.121094-.976562 7.070312-2.929687c3.90625-3.90625 3.90625-10.238281 0-14.140625-16.335937-16.339844-38.058593-25.335938-61.164062-25.335938s-44.828125 8.996094-61.167969 25.335938c-3.902343 3.902344-3.902343 10.234375 0 14.140625zm0 0"/><path d="m391.179688 254.738281c-1.859376 1.859375-2.929688 4.441407-2.929688 7.070313s1.070312 5.210937 2.929688 7.070312c1.859374 1.871094 4.441406 2.929688 7.070312 2.929688s5.210938-1.058594 7.070312-2.929688c1.859376-1.859375 2.929688-4.441406 2.929688-7.070312s-1.070312-5.210938-2.929688-7.070313c-1.859374-1.859375-4.441406-2.929687-7.070312-2.929687s-5.210938 1.070312-7.070312 2.929687zm0 0"/></svg>