<svg xmlns="http://www.w3.org/2000/svg" width="54" height="54" viewBox="0 0 54 54">
  <g id="location" transform="translate(-36 -286)">
    <g id="Location_pin" data-name="Location pin" transform="translate(-144.001 126.999)">
      <circle id="Ellipse_403" data-name="Ellipse 403" cx="25.999" cy="25.999" r="25.999" transform="translate(181.001 160.001)" fill="#656eda"/>
      <g id="pin" transform="translate(197.693 175.827)">
        <rect id="Rectangle_617" data-name="Rectangle 617" width="20.346" height="20.346" transform="translate(0 0)" fill="none"/>
        <path id="Path_166" data-name="Path 166" d="M8.36,12.056a3.543,3.543,0,0,0,3.55-3.55A3.652,3.652,0,0,0,8.36,4.831a3.543,3.543,0,0,0-3.55,3.55A3.741,3.741,0,0,0,8.36,12.056ZM2.4,2.422A8.426,8.426,0,0,1,14.318,14.338L8.36,20.3,2.4,14.338A8.656,8.656,0,0,1,2.4,2.422Z" transform="translate(1.247 0.05)" fill="#fff" fill-rule="evenodd"/>
      </g>
    </g>
    <rect id="Rectangle_2121" data-name="Rectangle 2121" width="54" height="54" transform="translate(36 286)" fill="none"/>
  </g>
</svg>
