<svg xmlns="http://www.w3.org/2000/svg" width="30" height="30" viewBox="0 0 30 30">
  <g id="phone" transform="translate(-116 -126)">
    <rect id="Rectangle_2120" data-name="Rectangle 2120" width="30" height="30" transform="translate(116 126)" fill="none"/>
    <path id="ic_phone_24px" d="M6.265,10.025a13.661,13.661,0,0,0,5.943,5.943l1.984-1.984a.9.9,0,0,1,.92-.216,10.287,10.287,0,0,0,3.219.514.9.9,0,0,1,.9.9v3.147a.9.9,0,0,1-.9.9A15.33,15.33,0,0,1,3,3.9.9.9,0,0,1,3.9,3H7.058a.9.9,0,0,1,.9.9,10.245,10.245,0,0,0,.514,3.219.905.905,0,0,1-.225.92Z" transform="translate(120 129.767)" fill="#20cd98"/>
  </g>
</svg>
