<svg xmlns="http://www.w3.org/2000/svg" xmlns:xlink="http://www.w3.org/1999/xlink" width="30" height="30" viewBox="0 0 30 30">
  <defs>
    <clipPath id="clip-path">
      <path id="Path_3069" data-name="Path 3069" d="M15.871-7.5A2.943,2.943,0,0,1,12.9-10.4a2.943,2.943,0,0,1,2.968-2.9,2.943,2.943,0,0,1,2.968,2.9A2.943,2.943,0,0,1,15.871-7.5Zm8.9-2.61a8.73,8.73,0,0,0-8.9-8.99,8.73,8.73,0,0,0-8.9,8.99c0,3.393,2.894,7.888,8.9,13.253C21.881-2.222,24.774-6.717,24.774-10.11ZM15.871-22A11.669,11.669,0,0,1,27.742-10.11q0,7.221-11.871,17.11Q4.007-2.9,4-10.11A11.669,11.669,0,0,1,15.871-22Z" transform="translate(-4 22)" fill="#fd9d71"/>
    </clipPath>
  </defs>
  <g id="pin" transform="translate(-116 -126)">
    <g id="Group_2392" data-name="Group 2392" transform="translate(115 149)">
      <g id="Group_2355" data-name="Group 2355" transform="translate(4 -22)" clip-path="url(#clip-path)">
        <path id="Path_3068" data-name="Path 3068" d="M-1-27H37.581V16.5H-1Z" transform="translate(-6.419 19.75)" fill="#fd9d71"/>
      </g>
    </g>
    <rect id="Rectangle_2120" data-name="Rectangle 2120" width="30" height="30" transform="translate(116 126)" fill="none"/>
  </g>
</svg>
