<svg xmlns="http://www.w3.org/2000/svg" xmlns:xlink="http://www.w3.org/1999/xlink" width="51" height="51" viewBox="0 0 51 51">
  <defs>
    <clipPath id="clip-path">
      <path id="Path_3065" data-name="Path 3065" d="M15.5-10h-.79l-.28-.27A6.471,6.471,0,0,0,16-14.5,6.5,6.5,0,0,0,9.5-21,6.5,6.5,0,0,0,3-14.5,6.5,6.5,0,0,0,9.5-8a6.471,6.471,0,0,0,4.23-1.57l.27.28v.79l5,4.99L20.49-5Zm-6,0A4.494,4.494,0,0,1,5-14.5,4.494,4.494,0,0,1,9.5-19,4.494,4.494,0,0,1,14-14.5,4.494,4.494,0,0,1,9.5-10Z" fill="#fff"/>
    </clipPath>
  </defs>
  <g id="search" transform="translate(-9017 3277)">
    <g id="Group_3215" data-name="Group 3215" transform="translate(8965 -3552)">
      <circle id="Ellipse_408" data-name="Ellipse 408" cx="25.5" cy="25.5" r="25.5" transform="translate(52 275)" fill="#656eda"/>
      <g id="Group_2351" data-name="Group 2351" transform="translate(66 312)">
        <g id="Group_2351-2" data-name="Group 2351" clip-path="url(#clip-path)">
          <path id="Path_3064" data-name="Path 3064" d="M-2-26H25.49V1.49H-2Z" fill="#fff"/>
        </g>
      </g>
    </g>
  </g>
</svg>
